<svg xmlns="http://www.w3.org/2000/svg" viewBox="0 0 180 40" fill="none">
  <path d="M4 32L14 8h4l10 24h-4.5l-2.5-6.5H11L8.5 32H4zm8.5-10.5h7L16 12.5l-3.5 9z" fill="#FFFFFF"/>
  <path d="M34 32V12h4v2.5c1.5-2 3.5-3 6-3 4.5 0 7 3 7 7.5V32h-4V19.5c0-3-1.5-4.5-4-4.5s-5 1.5-5 5V32h-4z" fill="#FFFFFF"/>
  <path d="M55 38V12h4v2.5c1.5-2 3.5-3 6-3 5 0 8 4 8 10.5s-3 10.5-8 10.5c-2.5 0-4.5-1-6-3V38h-4zm9-3c3.5 0 5.5-2.5 5.5-7s-2-7-5.5-7-5.5 2.5-5.5 7 2 7 5.5 7z" fill="#FFFFFF"/>
  <path d="M77 22c0-6.5 4.5-10.5 9.5-10.5 5.5 0 9 4 9 10v1.5H81.5c.5 4 3 6 6 6 2.5 0 4.5-1 5.5-3l3.5 1.5c-1.5 3-4.5 5-9 5-6 0-10.5-4-10.5-10.5zm4-1.5h11c-.5-3.5-2.5-5.5-5.5-5.5s-5 2-5.5 5.5z" fill="#FFFFFF"/>
  <path d="M99 32l8-10.5L99.5 12h5l5.5 7 5.5-7h5l-7.5 9.5L121 32h-5l-6-7.5-6 7.5h-5z" fill="#FFFFFF"/>
  <path d="M124 8h4v4h-4V8zm0 4h4v20h-4V12z" fill="#FFFFFF"/>
  <path d="M140 32.5c-4 0-7-2-7-5.5 0-4 3.5-5.5 8-6l5.5-1v-1c0-2.5-1.5-4-4.5-4-2.5 0-4 1-5 3l-3.5-1.5c1.5-3 4.5-5 8.5-5 5.5 0 8.5 3 8.5 8V32h-4v-2.5c-1.5 2-3.5 3-6.5 3zm1-3c3 0 5.5-2 5.5-5v-1l-5 1c-3 .5-4.5 1.5-4.5 3.5 0 1.5 1.5 2.5 4 1.5z" fill="#FFFFFF"/>
</svg>